<svg width="30" height="30" viewBox="0 0 30 30" fill="none" xmlns="http://www.w3.org/2000/svg">
<rect width="30" height="30" rx="15" fill="white"/>
<g clip-path="url(#clip0_31_101)">
<path fill-rule="evenodd" clip-rule="evenodd" d="M14.7708 7.5C14.7708 8.05531 14.7708 8.61059 14.7708 9.1659C14.3266 9.1659 13.8823 9.1659 13.4381 9.1659C13.4338 8.84115 13.4381 8.5165 13.4509 8.19199C13.8895 7.95774 14.3295 7.72707 14.7708 7.5Z" fill="#6A513D"/>
<path fill-rule="evenodd" clip-rule="evenodd" d="M15.5142 7.52563C16.0077 7.76386 16.4947 8.0159 16.975 8.2817C16.4678 9.59893 15.9724 10.9188 15.4885 12.2414C15.4746 12.2429 15.4661 12.2515 15.4629 12.267C15.9589 12.2757 16.4458 12.3014 16.9238 12.3439C16.4387 13.5194 15.9816 14.7069 15.5526 15.9064C15.1926 16.8508 14.9534 17.8247 14.835 18.8281C14.8222 20.0241 14.8179 21.2201 14.8222 22.4162C14.3694 22.4162 13.9166 22.4162 13.4638 22.4162C13.4595 21.186 13.4638 19.9558 13.4766 18.7256C13.5766 17.8876 13.756 17.0674 14.0149 16.2652C14.342 15.288 14.6965 14.3226 15.0785 13.3691C14.6301 13.3478 14.1773 13.3349 13.7201 13.3306C13.7059 13.3208 13.6973 13.308 13.6945 13.2922C14.2696 11.6978 14.8591 10.1087 15.4629 8.52517C15.48 8.19199 15.4971 7.85881 15.5142 7.52563Z" fill="#6A513D"/>
<path fill-rule="evenodd" clip-rule="evenodd" d="M15.5142 7.52563C15.4971 7.85881 15.48 8.19199 15.4629 8.52517C15.4544 8.18302 15.4629 7.8413 15.4885 7.5C15.5041 7.50318 15.5126 7.51171 15.5142 7.52563Z" fill="black"/>
<path fill-rule="evenodd" clip-rule="evenodd" d="M17.3081 8.44836C17.7235 8.66032 18.1421 8.86535 18.564 9.06346C18.564 13.5144 18.564 17.9653 18.564 22.4163C18.1368 22.4163 17.7097 22.4163 17.2825 22.4163C17.274 17.756 17.2825 13.1 17.3081 8.44836Z" fill="black"/>
<path fill-rule="evenodd" clip-rule="evenodd" d="M11.0805 9.47353C11.0976 12.6943 11.1147 15.915 11.1318 19.1357C11.1883 19.427 11.3506 19.5081 11.6187 19.3792C11.6687 19.3348 11.6944 19.2792 11.6956 19.2126C11.7153 19.1931 11.7281 19.1674 11.7341 19.1357C11.7469 15.7954 11.7512 12.4551 11.7469 9.11472C12.1702 8.88803 12.5931 8.65736 13.0155 8.42273C13.0326 11.9767 13.0326 15.5305 13.0155 19.0845C12.8327 20.2409 12.162 20.7236 11.0036 20.5325C10.456 20.3865 10.1015 20.0405 9.94002 19.4945C9.92843 19.408 9.91136 19.3225 9.88876 19.2382C9.84655 16.2059 9.83799 13.1731 9.86313 10.1399C10.2676 9.91419 10.6734 9.69207 11.0805 9.47353Z" fill="black"/>
<path fill-rule="evenodd" clip-rule="evenodd" d="M14.7709 7.5C14.7965 8.05941 14.8051 8.62325 14.7966 9.19153C14.3393 9.19998 13.8865 9.19145 13.4382 9.1659C13.8825 9.1659 14.3267 9.1659 14.7709 9.1659C14.7709 8.61059 14.7709 8.05531 14.7709 7.5Z" fill="black"/>
<path fill-rule="evenodd" clip-rule="evenodd" d="M20.4094 10.3192C21.2916 10.2449 21.8512 10.6293 22.0881 11.4725C22.1276 11.6499 22.1533 11.8293 22.165 12.0107C22.1821 14.9325 22.1821 17.8542 22.165 20.7759C22.0679 22.1974 21.329 22.7399 19.9481 22.4034C19.5429 22.2116 19.2738 21.8998 19.1407 21.4679C19.0994 21.2383 19.0652 21.0076 19.0382 20.7759C19.0132 17.7684 19.0217 14.7612 19.0638 11.7544C19.1208 11.2256 19.3643 10.8113 19.7943 10.5114C19.9907 10.4074 20.1958 10.3433 20.4094 10.3192Z" fill="black"/>
<path fill-rule="evenodd" clip-rule="evenodd" d="M11.2084 22.4161C10.0893 22.4161 8.97014 22.4161 7.85099 22.4161C7.84249 18.6639 7.85103 14.9135 7.87662 11.1649C8.27339 10.9451 8.67492 10.7315 9.08119 10.5242C9.10682 14.1122 9.11535 17.7003 9.10682 21.2884C9.80734 21.2884 10.5079 21.2884 11.2084 21.2884C11.2084 21.6643 11.2084 22.0402 11.2084 22.4161Z" fill="black"/>
<path fill-rule="evenodd" clip-rule="evenodd" d="M20.5119 11.4469C20.7011 11.4238 20.825 11.5007 20.8835 11.6775C20.9006 14.8214 20.9006 17.9652 20.8835 21.1091C20.8307 21.3385 20.6897 21.4196 20.4606 21.3525C20.3906 21.2852 20.3436 21.2041 20.3196 21.1091C20.3026 18.0079 20.3026 14.9068 20.3196 11.8057C20.3242 11.6511 20.3883 11.5315 20.5119 11.4469Z" fill="white"/>
<path fill-rule="evenodd" clip-rule="evenodd" d="M7.87675 11.165C7.85117 14.9136 7.84262 18.664 7.85112 22.4162C7.8255 18.6787 7.81696 14.9368 7.82549 11.1906C7.83425 11.1692 7.85134 11.1606 7.87675 11.165Z" fill="black"/>
<path fill-rule="evenodd" clip-rule="evenodd" d="M13.6945 13.2922C13.6974 13.308 13.7059 13.3208 13.7201 13.3306C14.1773 13.3349 14.6301 13.3477 15.0785 13.3691C14.6086 13.3691 14.1387 13.3691 13.6689 13.3691C13.6628 13.336 13.6713 13.3103 13.6945 13.2922Z" fill="black"/>
<path fill-rule="evenodd" clip-rule="evenodd" d="M15.4629 17.1622C15.9157 17.1622 16.3684 17.1622 16.8212 17.1622C16.8212 18.9135 16.8212 20.6649 16.8212 22.4162C16.3684 22.4162 15.9157 22.4162 15.4629 22.4162C15.4629 20.6649 15.4629 18.9135 15.4629 17.1622Z" fill="#6A513D"/>
<path fill-rule="evenodd" clip-rule="evenodd" d="M13.0027 21.2629C13.0027 21.6474 13.0027 22.0318 13.0027 22.4163C12.5328 22.4163 12.0629 22.4163 11.5931 22.4163C11.5931 22.0318 11.5931 21.6474 11.5931 21.2629C12.0629 21.2629 12.5328 21.2629 13.0027 21.2629Z" fill="black"/>
<path fill-rule="evenodd" clip-rule="evenodd" d="M13.0027 21.2629C13.0282 21.6514 13.0368 22.0444 13.0283 22.4419C12.5454 22.4503 12.067 22.4418 11.5931 22.4163C12.0629 22.4163 12.5328 22.4163 13.0027 22.4163C13.0027 22.0318 13.0027 21.6474 13.0027 21.2629Z" fill="black"/>
</g>
<defs>
<clipPath id="clip0_31_101">
<rect width="14.3555" height="15" fill="white" transform="translate(7.82224 7.5)"/>
</clipPath>
</defs>
</svg>
