<svg width="94" height="37" viewBox="0 0 94 37" fill="none" xmlns="http://www.w3.org/2000/svg">
<path d="M11.3624 18.1111C11.1304 18.3468 11 18.6664 11 18.9996C11 19.3328 11.1304 19.6523 11.3624 19.8881L16.0354 24.6316C16.2678 24.8675 16.5832 25 16.9119 25C17.2407 25 17.556 24.8675 17.7885 24.6316C18.021 24.3957 18.1516 24.0758 18.1516 23.7423C18.1516 23.4087 18.021 23.0888 17.7885 22.8529L15.2306 20.2569H24.7607C25.0894 20.2569 25.4046 20.1244 25.637 19.8887C25.8694 19.6529 26 19.333 26 18.9996C26 18.6661 25.8694 18.3463 25.637 18.1105C25.4046 17.8747 25.0894 17.7422 24.7607 17.7422H15.2306L17.7885 15.1471C17.9036 15.0303 17.9949 14.8917 18.0572 14.7391C18.1195 14.5865 18.1516 14.4229 18.1516 14.2577C18.1516 14.0926 18.1195 13.929 18.0572 13.7764C17.9949 13.6238 17.9036 13.4852 17.7885 13.3684C17.6734 13.2516 17.5367 13.1589 17.3863 13.0957C17.2359 13.0325 17.0747 13 16.9119 13C16.7491 13 16.5879 13.0325 16.4375 13.0957C16.2871 13.1589 16.1505 13.2516 16.0354 13.3684L11.3624 18.1111Z" fill="#FAFAFA" fill-opacity="0.7"/>
<circle cx="18.5" cy="18.5" r="17.5" stroke="#FAFAFA" stroke-opacity="0.7" stroke-width="2"/>
<path d="M82.6376 18.1111C82.8696 18.3468 83 18.6664 83 18.9996C83 19.3328 82.8696 19.6523 82.6376 19.8881L77.9646 24.6316C77.7322 24.8675 77.4168 25 77.0881 25C76.7593 25 76.444 24.8675 76.2115 24.6316C75.979 24.3957 75.8484 24.0758 75.8484 23.7423C75.8484 23.4087 75.979 23.0888 76.2115 22.8529L78.7694 20.2569H69.2393C68.9106 20.2569 68.5954 20.1244 68.363 19.8887C68.1306 19.6529 68 19.333 68 18.9996C68 18.6661 68.1306 18.3463 68.363 18.1105C68.5954 17.8747 68.9106 17.7422 69.2393 17.7422H78.7694L76.2115 15.1471C76.0964 15.0303 76.0051 14.8917 75.9428 14.7391C75.8805 14.5865 75.8484 14.4229 75.8484 14.2577C75.8484 14.0926 75.8805 13.929 75.9428 13.7764C76.0051 13.6238 76.0964 13.4852 76.2115 13.3684C76.3266 13.2516 76.4633 13.1589 76.6137 13.0957C76.7641 13.0325 76.9253 13 77.0881 13C77.2509 13 77.4121 13.0325 77.5625 13.0957C77.7129 13.1589 77.8495 13.2516 77.9646 13.3684L82.6376 18.1111Z" fill="#FAFAFA" fill-opacity="0.7"/>
<circle cx="75.5" cy="18.5" r="17.5" stroke="#FAFAFA" stroke-opacity="0.7" stroke-width="2"/>
</svg>
